# Blender v2.81 (sub 16) OBJ File: 'room.blend'
# www.blender.org
mtllib room.mtl
o Room_Cube
v 9.000000 0.000000 -5.000000
v 9.999999 2.000000 -6.000000
v 9.000000 0.000000 5.000000
v 9.999999 2.000000 6.000000
v -9.000000 0.000000 -5.000000
v -9.999999 2.000000 -6.000000
v -9.000000 0.000000 5.000000
v -9.999999 2.000000 6.000000
v -10.999999 2.000000 -6.999999
v 10.999999 2.000000 6.999999
v -10.999999 2.000000 6.999999
v 10.999999 2.000000 -6.999999
v -1.000000 0.000000 -5.000000
v 1.000000 0.000000 -6.999999
v 1.000000 2.000000 6.002657
v -1.000000 2.000000 6.002657
v -1.000000 0.000000 -6.999999
v -1.000000 0.000000 5.000000
v -1.000000 2.000000 -6.002657
v 1.000000 2.000000 -6.002657
v 1.000000 2.000000 7.002657
v -1.000000 2.000000 7.002657
v -1.000000 2.000000 -7.002657
v 1.000000 2.000000 -7.002657
v -9.999872 2.000000 1.000000
v -9.999872 2.000000 -1.000000
v 9.000000 0.000000 1.000000
v 9.000000 0.000000 -1.000000
v -9.000000 0.000000 1.000000
v -9.000000 0.000000 -1.000000
v 9.999872 2.000000 -1.000000
v 9.999872 2.000000 1.000000
v -10.999871 2.000000 1.000000
v -2.000000 2.000000 6.002400
v 10.999871 2.000000 -1.000000
v 10.999871 2.000000 1.000000
v 1.000000 2.000000 -6.999999
v 1.000000 0.000000 5.000000
v 1.000000 0.000000 -5.000000
v -1.000000 2.000000 -6.999999
v 1.000000 2.000000 6.999999
v -1.000000 2.000000 6.999999
v -1.000000 0.000000 6.999999
v 1.000000 0.000000 6.999999
v 10.999999 0.000000 1.000000
v 10.999999 0.000000 -1.000000
v 2.000000 0.000000 5.000000
v 2.000000 2.000000 7.002396
v 2.000000 2.000000 6.002397
v -10.999999 2.000000 -1.000000
v -10.999999 0.000000 1.000000
v -10.999999 0.000000 -1.000000
v -2.000000 2.000000 7.002399
v -2.000000 0.000000 5.000000
v -9.999897 2.000000 2.000000
v -10.999891 2.000000 2.000000
v -9.000000 0.000000 2.000000
v -9.000000 0.000000 -2.000000
v -9.999898 2.000000 -2.000000
v -10.999999 2.000000 -1.999999
v 10.999893 2.000000 -2.000000
v 9.999898 2.000000 -2.000000
v 9.000000 0.000000 -2.000000
v 9.999896 2.000000 1.999999
v 9.000000 0.000000 2.000000
v 10.999891 2.000000 1.999999
v -2.000000 2.000000 -6.002339
v -1.999997 2.000000 -7.002371
v -2.000002 0.000000 -5.000000
v 1.999999 2.000000 -7.002329
v 2.000001 0.000000 -5.000000
v 1.999999 2.000000 -6.002293
v -1.000000 2.666667 6.002657
v -1.000000 2.666667 7.002657
v 1.000000 2.666667 7.002657
v 1.000000 2.666667 6.002657
v 1.000000 2.666667 -6.002657
v 1.000000 2.666667 -7.002657
v -1.000000 2.666667 -7.002657
v -1.000000 2.666667 -6.002657
v -1.000000 0.666667 -5.000000
v -1.000000 0.666667 5.000000
v 9.999871 2.666667 1.000000
v 10.999871 2.666667 1.000000
v 10.999871 2.666667 -1.000000
v 9.999871 2.666667 -1.000000
v -2.000000 2.666667 6.002400
v -2.000000 2.666667 7.002399
v -2.000000 0.666667 5.000000
v -10.999871 2.666667 1.000000
v -9.999872 2.666667 1.000000
v 8.999999 0.666667 1.000000
v 8.999999 0.666667 -1.000000
v -9.000000 0.666667 -1.000000
v -9.999872 2.666667 -1.000000
v -9.000000 0.666667 1.000000
v 1.999998 2.666667 -6.002293
v -9.000000 0.666667 -2.000000
v 8.999999 0.666667 2.000000
v 1.999998 2.666667 -7.002329
v 9.999896 2.666667 1.999999
v 10.999891 2.666667 1.999999
v 1.000000 0.666667 -5.000000
v 1.000000 0.666667 5.000000
v 2.000001 0.666667 -5.000000
v 1.999999 0.666667 5.000000
v 1.999999 2.666667 6.002397
v 1.999999 2.666667 7.002396
v -10.999999 2.666667 -1.000000
v -10.999999 2.666667 -1.999999
v -9.999897 2.666667 2.000000
v -10.999891 2.666667 2.000000
v -9.000000 0.666667 2.000000
v -9.999899 2.666667 -2.000000
v 10.999893 2.666667 -2.000000
v 9.999897 2.666667 -2.000000
v 8.999999 0.666667 -2.000000
v -2.000001 2.666667 -6.002339
v -1.999997 2.666667 -7.002371
v -2.000003 0.666667 -5.000000
vt 0.997111 0.220141
vt 0.554022 -0.001403
vt 0.609408 -0.001403
vt 0.997111 -0.001403
vt 0.997111 0.164755
vt 0.443250 -0.001403
vt 0.000160 0.220141
vt 0.000160 0.164755
vt 0.000160 -0.001403
vt 0.387863 -0.001403
vt 0.038603 0.445195
vt 0.038603 0.445195
vt 0.038603 0.445195
vt 0.038603 0.445195
vt 0.038603 0.445195
vt 0.038603 0.445195
vt 0.038603 0.445195
vt 0.038603 0.445195
vt 0.443250 0.552458
vt 0.387863 0.552458
vt 0.000160 0.552458
vt 0.000160 0.386300
vt 0.000160 0.330914
vt 0.038603 0.445195
vt 0.038603 0.445195
vt 0.038603 0.445195
vt 0.038603 0.445195
vt 0.038603 0.445195
vt 0.038603 0.445195
vt -0.055226 -0.056789
vt -0.055220 0.164755
vt -0.110606 0.164755
vt -0.110612 -0.112175
vt 0.387863 -0.056922
vt 0.387863 -0.112308
vt 0.038603 0.445195
vt 0.038603 0.445195
vt 0.038603 0.445195
vt 0.038603 0.445195
vt 0.038603 0.445195
vt 0.038603 0.445195
vt 0.038603 0.445195
vt 0.038603 0.445195
vt 0.038603 0.445195
vt 0.038603 0.445195
vt -0.055226 0.607844
vt 0.387863 0.607974
vt 0.387864 0.663362
vt -0.110612 0.663230
vt 0.038603 0.445195
vt 0.038603 0.445195
vt 0.038603 0.445195
vt 0.038603 0.445195
vt 0.038603 0.445195
vt 0.038603 0.445195
vt 0.038603 0.445195
vt 0.038603 0.445195
vt 0.038603 0.445195
vt 0.038603 0.445195
vt 1.052497 0.607844
vt 1.052492 0.386300
vt 1.107877 0.386300
vt 1.107883 0.663230
vt 0.038603 0.445195
vt 0.038603 0.445195
vt 0.038603 0.445195
vt 0.038603 0.445195
vt 0.038603 0.445195
vt 0.038603 0.445195
vt 0.038603 0.445195
vt 0.038603 0.445195
vt 0.554022 0.552458
vt 0.443250 -0.056937
vt 0.443250 -0.112323
vt 0.554022 -0.112323
vt 0.554022 -0.056937
vt 0.554022 0.607991
vt 0.554022 0.663378
vt 0.443250 0.663378
vt 0.443250 0.607991
vt 0.554022 0.663230
vt 0.443250 0.663230
vt -0.110612 0.330914
vt -0.110612 0.220141
vt 0.038603 0.445195
vt 0.038603 0.445195
vt 0.038603 0.445195
vt 0.038603 0.445195
vt 0.038603 0.445195
vt 0.038603 0.445195
vt 0.038603 0.445195
vt 0.997111 0.330914
vt 1.052490 0.220141
vt 1.107876 0.220141
vt 1.107876 0.330914
vt 1.052490 0.330914
vt -0.055219 0.330914
vt -0.110612 0.330914
vt -0.110605 0.220141
vt -0.055219 0.220141
vt 0.038603 0.445195
vt 0.038603 0.445195
vt 0.038603 0.445195
vt 0.038603 0.445195
vt 0.997111 0.552458
vt 0.609408 0.552458
vt 0.997111 0.386300
vt 0.038603 0.445195
vt 0.038603 0.445195
vt 0.038603 0.445195
vt 0.038603 0.445195
vt 0.038603 0.445195
vt 0.038603 0.445195
vt 0.038603 0.445195
vt 0.038603 0.445195
vt 0.038603 0.445195
vt 0.038603 0.445195
vt 0.443250 -0.112175
vt 0.554022 -0.112175
vt 1.107883 0.220141
vt 1.107883 0.330914
vt 0.038603 0.445195
vt 0.038603 0.445195
vt 0.038603 0.445195
vt 0.038603 0.445195
vt 1.052497 -0.056789
vt 0.609408 -0.056922
vt 0.609408 -0.112308
vt 1.107883 -0.112175
vt 0.038603 0.445195
vt 0.038603 0.445195
vt 0.038603 0.445195
vt 0.038603 0.445195
vt 0.038603 0.445195
vt 0.038603 0.445195
vt 0.038603 0.445195
vt 0.038603 0.445195
vt 0.038603 0.445195
vt 0.038603 0.445195
vt 0.038603 0.445195
vt 0.038603 0.445195
vt 0.038603 0.445195
vt 0.038603 0.445195
vt -0.110612 0.386300
vt -0.055220 0.386300
vt 0.038603 0.445195
vt 0.038603 0.445195
vt 0.038603 0.445195
vt 0.038603 0.445195
vt 0.038603 0.445195
vt 1.107877 0.164755
vt 1.052492 0.164755
vt 0.038603 0.445195
vt 0.038603 0.445195
vt 0.609408 0.663360
vt 0.609408 0.607972
vt 0.038603 0.445195
vt 0.038603 0.445195
vt 0.038603 0.445195
vt 0.038603 0.445195
vt 0.038603 0.445195
vt 0.038603 0.445195
vt 0.038603 0.445195
vt 0.038603 0.445195
vt 0.038603 0.445195
vt 0.038603 0.445195
vt 0.038603 0.445195
vt 0.038603 0.445195
vt 0.038603 0.445195
vt 0.038603 0.445195
vt 0.038603 0.445195
vt 0.038603 0.445195
vt 0.038603 0.445195
vt 0.038603 0.445195
vt 0.038603 0.445195
vt 0.038603 0.445195
vt 0.038603 0.445195
vt 0.038603 0.445195
vt 0.038603 0.445195
vt 0.038603 0.445195
vt 0.038603 0.445195
vt 0.038603 0.445195
vt 0.038603 0.445195
vt 0.038603 0.445195
vt 0.454516 0.022521
vt 0.454516 0.022521
vt 0.454516 0.022521
vt 0.454516 0.022521
vt 0.454516 0.022521
vt 0.454516 0.022521
vt 0.454516 0.022521
vt 0.454516 0.022521
vt 0.454516 0.022521
vt 0.454516 0.022521
vt 0.454516 0.022521
vt 0.454516 0.022521
vt 0.454516 0.022521
vt 0.454516 0.022521
vt 0.454516 0.022521
vt 0.454516 0.022521
vn 0.0000 1.0000 0.0000
vn -1.0000 0.0000 0.0000
vn -0.8944 0.4472 -0.0000
vn 0.8944 0.4472 0.0000
vn 0.0001 0.4477 -0.8942
vn 0.0000 -0.0000 -1.0000
vn -0.0003 -0.0000 -1.0000
vn 0.0000 0.0000 1.0000
vn 1.0000 0.0000 0.0000
vn 0.0001 0.4477 0.8942
vn -0.0001 0.4477 -0.8942
vn -0.0001 0.4477 0.8942
vn -0.0001 0.4481 -0.8940
vn -0.0002 0.4481 0.8940
vn 0.0001 0.4481 -0.8940
vn 0.0001 0.4481 0.8940
vn -0.0003 -0.0000 1.0000
vn 0.0003 0.0000 -1.0000
vn 0.0003 0.0000 1.0000
vn -1.0000 -0.0001 0.0000
usemtl Tiles
s off
f 27/1/1 38/2/1 47/3/1 3/4/1 65/5/1
f 18/6/1 29/7/1 57/8/1 7/9/1 54/10/1
f 60/11/2 50/12/2 109/13/2 110/14/2
f 2/15/3 1/16/3 63/17/3 62/18/3
f 13/19/1 69/20/1 5/21/1 58/22/1 30/23/1
f 8/24/4 7/25/4 57/26/4 55/27/4
f 34/28/5 54/29/5 7/25/5 8/24/5
f 8/30/1 55/31/1 56/32/1 11/33/1
f 34/34/1 8/30/1 11/33/1 53/35/1
f 32/36/6 27/37/6 92/38/6 83/39/6
f 59/40/6 60/11/6 110/14/6 114/41/6
f 23/42/7 68/43/7 119/44/7 79/45/7
f 6/46/1 67/47/1 68/48/1 9/49/1
f 50/12/8 26/50/8 95/51/8 109/13/8
f 25/52/6 33/53/6 90/54/6 91/55/6
f 22/56/9 16/57/9 73/58/9 74/59/9
f 2/60/1 62/61/1 61/62/1 12/63/1
f 47/64/6 38/65/6 104/66/6 106/67/6
f 6/68/10 5/69/10 69/70/10 67/71/10
f 18/6/1 38/2/1 39/72/1 13/19/1
f 16/73/1 22/74/1 21/75/1 15/76/1
f 20/77/1 24/78/1 23/79/1 19/80/1
f 13/19/1 39/72/1 14/81/1 17/82/1
f 29/7/1 30/23/1 52/83/1 51/84/1
f 19/85/9 13/86/9 17/87/9 40/88/9
f 15/89/2 38/65/2 44/90/2 41/91/2
f 38/2/1 27/1/1 28/92/1 39/72/1
f 32/93/1 36/94/1 35/95/1 31/96/1
f 26/97/1 50/98/1 33/99/1 25/100/1
f 27/37/6 32/36/6 36/101/6 45/102/6
f 25/52/6 29/103/6 51/104/6 33/53/6
f 29/7/1 18/6/1 13/19/1 30/23/1
f 1/105/1 71/106/1 39/72/1 28/92/1 63/107/1
f 39/108/2 20/109/2 37/110/2 14/111/2
f 4/112/11 3/113/11 47/64/11 49/114/11
f 18/115/9 16/57/9 42/116/9 43/117/9
f 38/2/1 18/6/1 43/118/1 44/119/1
f 28/92/1 27/1/1 45/120/1 46/121/1
f 31/122/8 28/123/8 46/124/8 35/125/8
f 4/126/1 49/127/1 48/128/1 10/129/1
f 30/130/8 26/50/8 50/12/8 52/131/8
f 18/115/6 54/29/6 89/132/6 82/133/6
f 39/108/8 71/134/8 105/135/8 103/136/8
f 83/39/3 92/38/3 99/137/3 101/138/3
f 30/130/9 58/139/9 98/140/9 94/141/9
f 65/142/8 64/143/8 101/138/8 99/137/8
f 60/144/1 59/145/1 6/46/1 9/49/1
f 59/40/4 58/139/4 5/69/4 6/68/4
f 34/28/2 53/146/2 88/147/2 87/148/2
f 64/143/8 66/149/8 102/150/8 101/138/8
f 66/151/1 64/152/1 4/126/1 10/129/1
f 64/143/3 65/142/3 3/113/3 4/112/3
f 16/57/9 18/115/9 82/133/9 73/58/9
f 55/27/8 57/26/8 113/153/8 111/154/8
f 70/155/1 72/156/1 2/60/1 12/63/1
f 72/157/12 71/134/12 1/16/12 2/15/12
f 77/158/1 97/159/1 100/160/1 78/161/1
f 107/162/13 106/67/13 104/66/13 76/163/13
f 107/162/1 76/163/1 75/164/1 108/165/1
f 77/158/14 103/136/14 105/135/14 97/159/14
f 83/39/1 101/138/1 102/150/1 84/166/1
f 95/51/4 94/141/4 98/140/4 114/41/4
f 95/51/1 114/41/1 110/14/1 109/13/1
f 73/58/1 87/148/1 88/147/1 74/59/1
f 73/58/15 82/133/15 89/132/15 87/148/15
f 112/167/1 111/154/1 91/55/1 90/54/1
f 111/154/4 113/153/4 96/168/4 91/55/4
f 116/169/3 117/170/3 93/171/3 86/172/3
f 115/173/1 116/169/1 86/172/1 85/174/1
f 118/175/16 120/176/16 81/177/16 80/178/16
f 119/44/1 118/175/1 80/178/1 79/45/1
f 69/70/8 13/86/8 81/177/8 120/176/8
f 15/89/2 21/179/2 75/164/2 76/163/2
f 58/139/6 59/40/6 114/41/6 98/140/6
f 28/123/8 31/122/8 86/172/8 93/171/8
f 67/71/2 69/70/2 120/176/2 118/175/2
f 49/114/9 47/64/9 106/67/9 107/162/9
f 35/125/9 61/180/9 115/173/9 85/174/9
f 68/43/2 67/71/2 118/175/2 119/44/2
f 48/181/9 49/114/9 107/162/9 108/165/9
f 24/182/2 20/109/2 77/158/2 78/161/2
f 26/50/8 30/130/8 94/141/8 95/51/8
f 66/149/9 36/101/9 84/166/9 102/150/9
f 53/146/17 22/56/17 74/59/17 88/147/17
f 63/17/2 28/123/2 93/171/2 117/170/2
f 29/103/6 25/52/6 91/55/6 96/168/6
f 54/29/2 34/28/2 87/148/2 89/132/2
f 19/85/9 23/42/9 79/45/9 80/178/9
f 62/18/6 63/17/6 117/170/6 116/169/6
f 61/180/6 62/18/6 116/169/6 115/173/6
f 33/53/2 56/183/2 112/167/2 90/54/2
f 36/101/6 32/36/6 83/39/6 84/166/6
f 72/157/9 70/184/9 100/160/9 97/159/9
f 27/37/2 65/142/2 99/137/2 92/38/2
f 20/109/2 39/108/2 103/136/2 77/158/2
f 57/26/9 29/103/9 96/168/9 113/153/9
f 71/134/9 72/157/9 97/159/9 105/135/9
f 13/86/9 19/85/9 80/178/9 81/177/9
f 38/65/2 15/89/2 76/163/2 104/66/2
f 56/183/8 55/27/8 111/154/8 112/167/8
f 31/122/8 35/125/8 85/174/8 86/172/8
f 70/184/18 24/182/18 78/161/18 100/160/18
f 21/179/19 48/181/19 108/165/19 75/164/19
f 35/185/20 46/186/20 45/187/20 36/188/20
f 14/189/8 37/190/8 40/191/8 17/192/8
f 50/193/9 33/194/9 51/195/9 52/196/9
f 41/197/6 44/198/6 43/199/6 42/200/6
